<?xml version="1.0" encoding="UTF-8" standalone="no"?>
<!-- Created with Inkscape (http://www.inkscape.org/) -->

<svg
   xmlns:osb="http://www.openswatchbook.org/uri/2009/osb"
   xmlns:dc="http://purl.org/dc/elements/1.1/"
   xmlns:cc="http://creativecommons.org/ns#"
   xmlns:rdf="http://www.w3.org/1999/02/22-rdf-syntax-ns#"
   xmlns:svg="http://www.w3.org/2000/svg"
   xmlns="http://www.w3.org/2000/svg"
   xmlns:xlink="http://www.w3.org/1999/xlink"
   xmlns:sodipodi="http://sodipodi.sourceforge.net/DTD/sodipodi-0.dtd"
   xmlns:inkscape="http://www.inkscape.org/namespaces/inkscape"
   inkscape:export-ydpi="90"
   inkscape:export-xdpi="90"
   inkscape:export-filename="/home/nathanael/Dropbox/Latex/ParityGamesValueIteration/Fig/separation.png"
   sodipodi:docname="separation.svg"
   inkscape:version="0.91 r13725"
   version="1.1"
   id="svg5861"
   viewBox="0 0 733.81162 473.18898"
   height="133.54445mm"
   width="207.09795mm">
  <sodipodi:namedview
     fit-margin-bottom="2"
     fit-margin-right="2"
     fit-margin-left="2"
     fit-margin-top="2"
     objecttolerance="10"
     inkscape:window-maximized="1"
     inkscape:window-y="24"
     inkscape:window-x="63"
     inkscape:window-height="1056"
     inkscape:window-width="1857"
     inkscape:object-paths="true"
     inkscape:object-nodes="true"
     inkscape:snap-smooth-nodes="true"
     showgrid="false"
     inkscape:current-layer="svg5861"
     inkscape:document-units="px"
     inkscape:cy="266.11206"
     inkscape:cx="261.74292"
     inkscape:zoom="0.49497475"
     inkscape:pageshadow="2"
     inkscape:pageopacity="0.0"
     borderopacity="1.0"
     bordercolor="#666666"
     pagecolor="#ffffff"
     id="base" />
  <defs
     id="defs5863">
    <pattern
       patternTransform="matrix(10,0,0,10,-559.09527,189.39948)"
       id="pattern5869"
       xlink:href="#Strips1_1"
       inkscape:collect="always" />
    <pattern
       inkscape:collect="always"
       patternUnits="userSpaceOnUse"
       width="2"
       height="1"
       patternTransform="translate(0,0) scale(10,10)"
       id="Strips1_1"
       inkscape:stockid="Stripes 1:1"
       inkscape:isstock="true">
      <rect
         style="fill:black;stroke:none"
         x="0"
         y="-0.5"
         width="1"
         height="2"
         id="rect5128" />
    </pattern>
    <linearGradient
       id="linearGradient4571"
       inkscape:collect="always">
      <stop
         id="stop4573"
         offset="0"
         style="stop-color:#c73838;stop-opacity:1;" />
      <stop
         id="stop4575"
         offset="1"
         style="stop-color:#c73838;stop-opacity:0;" />
    </linearGradient>
    <linearGradient
       id="linearGradient5957"
       osb:paint="solid">
      <stop
         style="stop-color:#000000;stop-opacity:1;"
         offset="0"
         id="stop5959" />
    </linearGradient>
    <linearGradient
       inkscape:collect="always"
       id="linearGradient8430">
      <stop
         style="stop-color:#c83737;stop-opacity:1;"
         offset="0"
         id="stop8432" />
      <stop
         style="stop-color:#c83737;stop-opacity:0;"
         offset="1"
         id="stop8434" />
    </linearGradient>
    <linearGradient
       inkscape:collect="always"
       id="linearGradient8418">
      <stop
         style="stop-color:#c8beb7;stop-opacity:1;"
         offset="0"
         id="stop8420" />
      <stop
         style="stop-color:#c8beb7;stop-opacity:0;"
         offset="1"
         id="stop8422" />
    </linearGradient>
    <marker
       inkscape:isstock="true"
       style="overflow:visible"
       id="marker6987"
       refX="0"
       refY="0"
       orient="auto"
       inkscape:stockid="Arrow1Lend"
       inkscape:collect="always">
      <path
         inkscape:connector-curvature="0"
         transform="matrix(-0.8,0,0,-0.8,-10,0)"
         style="fill:#000000;fill-opacity:1;fill-rule:evenodd;stroke:#000000;stroke-width:1pt;stroke-opacity:1"
         d="M 0,0 5,-5 -12.5,0 5,5 0,0 Z"
         id="path6989" />
    </marker>
    <marker
       inkscape:stockid="Arrow1Lend"
       orient="auto"
       refY="0"
       refX="0"
       id="Arrow1Lend"
       style="overflow:visible"
       inkscape:isstock="true"
       inkscape:collect="always">
      <path
         id="path4240"
         d="M 0,0 5,-5 -12.5,0 5,5 0,0 Z"
         style="fill:#000000;fill-opacity:1;fill-rule:evenodd;stroke:#000000;stroke-width:1pt;stroke-opacity:1"
         transform="matrix(-0.8,0,0,-0.8,-10,0)"
         inkscape:connector-curvature="0" />
    </marker>
    <marker
       inkscape:stockid="Arrow1Lend"
       orient="auto"
       refY="0"
       refX="0"
       id="Arrow1Lend-3"
       style="overflow:visible"
       inkscape:isstock="true"
       inkscape:collect="always">
      <path
         id="path4240-6"
         d="M 0,0 5,-5 -12.5,0 5,5 0,0 Z"
         style="fill:#000000;fill-opacity:1;fill-rule:evenodd;stroke:#000000;stroke-width:1pt;stroke-opacity:1"
         transform="matrix(-0.8,0,0,-0.8,-10,0)"
         inkscape:connector-curvature="0" />
    </marker>
    <clipPath
       id="clipPath4500"
       clipPathUnits="userSpaceOnUse">
      <g
         id="g4502">
        <ellipse
           transform="scale(-1,1)"
           ry="176.7767"
           rx="280.82242"
           cy="394.75287"
           cx="-395.9798"
           id="ellipse4504"
           style="opacity:0.73600003;fill:#ffffff;fill-opacity:1;stroke:#000000;stroke-width:4.79799986;stroke-miterlimit:4;stroke-dasharray:none;stroke-opacity:1" />
        <path
           inkscape:connector-curvature="0"
           id="path4506"
           d="m 580.80319,527.84565 -53.50356,-43.1892 53.53808,-23.23351 -50.50762,-35.35534 48.48732,-15.15228 -48.48732,-27.27412 47.47717,-25.25382 -42.42641,-26.26396 43.43656,-19.1929 -42.42641,-14.14214 43.27114,-37.7528 -1.7573,-0.94862"
           style="fill:#ffffff;fill-opacity:1;fill-rule:evenodd;stroke:#000000;stroke-width:2;stroke-linecap:butt;stroke-linejoin:miter;stroke-miterlimit:4;stroke-dasharray:none;stroke-opacity:1" />
        <path
           inkscape:connector-curvature="0"
           id="path4508"
           d="m 211.44361,261.50225 53.50356,43.1892 -53.53808,23.23351 50.50762,35.35534 -48.48732,15.15228 48.48732,27.27412 -47.47717,25.25382 42.42641,26.26396 -43.43656,19.1929 42.42641,14.14214 -43.27114,37.7528 1.7573,0.94862"
           style="fill:#ffffff;fill-opacity:1;fill-rule:evenodd;stroke:#000000;stroke-width:2;stroke-linecap:butt;stroke-linejoin:miter;stroke-miterlimit:4;stroke-dasharray:none;stroke-opacity:1" />
        <path
           inkscape:connector-curvature="0"
           id="path4510"
           d="M 349.44991,569.0861 C 501.15426,360.28907 364.72702,219.07431 364.72702,219.07431"
           style="fill:none;fill-rule:evenodd;stroke:#000000;stroke-width:3;stroke-linecap:butt;stroke-linejoin:miter;stroke-miterlimit:4;stroke-dasharray:none;stroke-opacity:1" />
        <g
           id="g4512">
          <path
             style="color:#000000;clip-rule:nonzero;display:inline;overflow:visible;visibility:visible;opacity:0.73600003;isolation:auto;mix-blend-mode:normal;color-interpolation:sRGB;color-interpolation-filters:linearRGB;solid-color:#000000;solid-opacity:1;fill:url(#linearGradient4522);fill-opacity:1;fill-rule:nonzero;stroke:#000000;stroke-width:3.03045774;stroke-linecap:butt;stroke-linejoin:miter;stroke-miterlimit:4;stroke-dasharray:none;stroke-dashoffset:0;stroke-opacity:1;color-rendering:auto;image-rendering:auto;shape-rendering:auto;text-rendering:auto;enable-background:accumulate"
             d="m 202.4691,519.37418 c -26.59289,-16.29429 -49.25608,-37.11641 -63.12901,-58.00063 -6.83807,-10.29398 -14.33521,-26.51997 -17.42434,-37.71132 -3.2876,-11.91038 -4.49225,-33.94249 -2.52667,-46.21095 6.59547,-41.16666 36.06562,-78.64192 85.606,-108.85954 l 7.28553,-4.44388 24.73067,19.90565 c 13.60187,10.9481 24.41501,20.18305 24.0292,20.5221 -0.38581,0.33905 -12.17933,5.56385 -26.20782,11.61067 -14.0285,6.04682 -25.50636,11.25266 -25.50636,11.56853 0,0.31588 10.9318,8.21354 24.29289,17.55035 13.36109,9.33682 24.05811,17.21081 23.77116,17.49776 -0.28695,0.28694 -11.0805,3.82241 -23.98569,7.85658 l -23.46397,7.33488 3.11102,1.87326 c 1.71107,1.03029 12.4744,7.1008 23.91852,13.49001 11.44412,6.38922 20.81557,11.89249 20.82545,12.22949 0.0101,0.33701 -10.2006,6.01912 -22.68995,12.62691 -12.48934,6.60779 -22.71714,12.28634 -22.72843,12.619 -0.0113,0.33265 9.07084,6.23111 20.18251,13.10771 11.11168,6.87658 20.20305,12.74639 20.20305,13.04402 0,0.29762 -9.35869,4.62695 -20.79708,9.62072 -11.43839,4.99377 -20.98926,9.38509 -21.22417,9.75849 -0.2349,0.3734 8.8965,3.77436 20.292,7.55769 11.3955,3.78333 20.7191,7.16816 20.7191,7.52185 0,0.61095 -37.96167,34.24411 -38.65125,34.24411 -0.18072,0 -4.96528,-2.84106 -10.63236,-6.31346 z"
             id="path4514"
             inkscape:connector-curvature="0" />
          <path
             style="color:#000000;clip-rule:nonzero;display:inline;overflow:visible;visibility:visible;opacity:0.73600003;isolation:auto;mix-blend-mode:normal;color-interpolation:sRGB;color-interpolation-filters:linearRGB;solid-color:#000000;solid-opacity:1;fill:#c8beb7;fill-opacity:1;fill-rule:nonzero;stroke:#000000;stroke-width:3.03045774;stroke-linecap:butt;stroke-linejoin:miter;stroke-miterlimit:4;stroke-dasharray:none;stroke-dashoffset:0;stroke-opacity:1;color-rendering:auto;image-rendering:auto;shape-rendering:auto;text-rendering:auto;enable-background:accumulate"
             d="m 340.06377,565.237 c -27.54333,-4.47108 -36.56666,-6.22629 -51.07171,-9.93438 -9.47737,-2.42281 -23.79629,-6.75472 -31.8198,-9.62646 -13.06139,-4.67487 -35.95063,-14.6423 -40.59815,-17.679 -1.54165,-1.00731 0.86716,-3.4506 18.94036,-19.21139 11.38865,-9.93153 20.70664,-18.37459 20.70664,-18.76236 0,-0.38778 -8.52317,-3.53152 -18.94036,-6.98608 -10.4172,-3.45457 -19.32987,-6.50389 -19.80593,-6.77627 -0.47606,-0.27237 8.13649,-4.45674 19.13901,-9.29861 11.00252,-4.84185 20.14682,-9.2301 20.32068,-9.75168 0.17385,-0.52156 -1.1656,-1.81742 -2.97657,-2.8797 -1.81097,-1.06227 -11.12311,-6.77746 -20.69363,-12.70041 l -17.40097,-10.76903 22.92495,-12.17625 c 12.60871,-6.69693 23.04452,-12.56018 23.19069,-13.02944 0.14616,-0.46926 -10.25506,-6.73788 -23.11383,-13.93028 -12.85877,-7.19238 -22.96453,-13.20417 -22.45725,-13.35953 18.3769,-5.62769 46.18459,-14.44832 46.47966,-14.74338 0.21832,-0.21832 -10.96783,-8.31574 -24.8581,-17.99428 -19.56659,-13.63369 -24.85573,-17.76899 -23.48221,-18.35949 35.6503,-15.32669 50.20846,-21.84827 50.39992,-22.57753 0.13052,-0.49718 -11.35119,-10.20365 -25.51494,-21.56994 l -25.75225,-20.66597 6.87589,-3.47742 c 34.61411,-17.50575 82.13651,-31.03138 124.55866,-35.45138 5.83363,-0.60781 12.28119,-1.32203 14.32791,-1.58716 3.68429,-0.47725 3.79511,-0.38407 11.13982,9.3682 33.01651,43.83911 50.46203,103.9232 46.26839,159.35283 -4.12771,54.55797 -22.90662,105.55157 -58.86885,159.85664 -10.89151,16.44684 -10.2954,15.95713 -17.91803,14.71975 z"
             id="path4516"
             inkscape:connector-curvature="0" />
          <path
             style="color:#000000;clip-rule:nonzero;display:inline;overflow:visible;visibility:visible;opacity:0.73600003;isolation:auto;mix-blend-mode:normal;color-interpolation:sRGB;color-interpolation-filters:linearRGB;solid-color:#000000;solid-opacity:1;fill:#c83737;fill-opacity:1;fill-rule:nonzero;stroke:#000000;stroke-width:3.03045774;stroke-linecap:butt;stroke-linejoin:miter;stroke-miterlimit:4;stroke-dasharray:none;stroke-dashoffset:0;stroke-opacity:1;color-rendering:auto;image-rendering:auto;shape-rendering:auto;text-rendering:auto;enable-background:accumulate"
             d="m 374.64575,567.94396 c -10.46837,-0.40355 -19.42547,-0.8713 -19.90466,-1.03944 -0.47919,-0.16814 3.08558,-6.2409 7.92172,-13.49504 26.84247,-40.26326 45.90427,-83.48025 54.29594,-123.09995 7.74169,-36.55097 7.70211,-75.35825 -0.11253,-110.34332 -7.43245,-33.27402 -22.66489,-66.39873 -42.48211,-92.38226 l -4.32024,-5.66451 7.6769,-0.64894 c 10.89099,-0.92063 24.49794,-0.79871 43.73757,0.39187 54.39231,3.36589 100.91005,14.85408 144.7132,35.73891 l 9.85785,4.70011 -20.71699,18.18436 c -11.39434,10.0014 -20.70013,18.51026 -20.67954,18.90858 0.0206,0.39831 8.9174,3.62347 19.77068,7.167 10.85327,3.54353 19.35958,6.76974 18.90291,7.16934 -0.45667,0.3996 -9.46711,4.48675 -20.0232,9.08255 -10.5561,4.5958 -19.51395,8.64555 -19.90633,8.99942 -0.39239,0.35389 8.56645,6.32269 19.90852,13.26401 11.34207,6.94133 20.64085,12.91347 20.66394,13.27145 0.0231,0.35798 -10.45237,6.20297 -23.27882,12.98887 l -23.32082,12.33802 2.86523,1.72542 c 1.57588,0.94897 12.07512,6.89516 23.33165,13.21374 11.25654,6.31859 20.12063,11.82026 19.69798,12.22596 -0.42265,0.4057 -10.54168,3.78467 -22.48673,7.50882 -11.94506,3.72415 -22.07779,6.98103 -22.51718,7.23753 -0.4394,0.25649 10.24296,8.18018 23.73858,17.60822 13.49562,9.42803 24.64595,17.45831 24.7785,17.84507 0.13255,0.38676 -11.34478,5.70345 -25.50519,11.81488 -14.1604,6.11142 -25.74672,11.41664 -25.74736,11.78938 -6.4e-4,0.37274 11.36305,9.85905 25.25265,21.08071 13.88959,11.22165 25.25381,20.73571 25.25381,21.14236 0,1.07552 -24.07251,12.2737 -35.84155,16.67295 -51.343,19.19198 -103.76846,26.98462 -165.52438,24.60393 z"
             id="path4518"
             inkscape:connector-curvature="0" />
          <path
             style="color:#000000;clip-rule:nonzero;display:inline;overflow:visible;visibility:visible;opacity:0.73600003;isolation:auto;mix-blend-mode:normal;color-interpolation:sRGB;color-interpolation-filters:linearRGB;solid-color:#000000;solid-opacity:1;fill:url(#linearGradient4524);fill-opacity:1;fill-rule:nonzero;stroke:#000000;stroke-width:3.03045774;stroke-linecap:butt;stroke-linejoin:miter;stroke-miterlimit:4;stroke-dasharray:none;stroke-dashoffset:0;stroke-opacity:1;color-rendering:auto;image-rendering:auto;shape-rendering:auto;text-rendering:auto;enable-background:accumulate"
             d="m 557.25252,506.93101 c -12.18361,-9.80295 -23.15817,-18.79803 -24.3879,-19.98906 l -2.23588,-2.16549 25.80708,-11.11168 c 14.1939,-6.11142 26.00474,-11.42324 26.2463,-11.80405 0.24157,-0.38079 -10.36548,-8.24933 -23.5712,-17.48561 -13.20573,-9.23628 -24.11743,-17.10694 -24.24821,-17.49037 -0.13079,-0.38343 10.04088,-3.87912 22.6037,-7.76821 12.56283,-3.88909 22.84287,-7.51663 22.84454,-8.06121 0.002,-0.76828 -24.07722,-14.90458 -44.5111,-26.13094 -2.18249,-1.19906 -0.87278,-2.05527 20.54374,-13.43035 12.58117,-6.6823 22.90178,-12.55933 22.9347,-13.06006 0.0329,-0.50072 -8.93126,-6.46946 -19.9204,-13.26385 -10.98913,-6.7944 -20.11437,-12.48758 -20.2783,-12.65151 -0.16393,-0.16393 9.44955,-4.58147 21.36329,-9.81676 11.91374,-5.23528 21.3133,-9.8327 20.88792,-10.21649 -0.42539,-0.3838 -10.02316,-3.76196 -21.32839,-7.50703 -16.52227,-5.47331 -20.28773,-7.0513 -19.1929,-8.04316 1.62637,-1.47338 33.93626,-29.55588 36.44348,-31.67525 1.56966,-1.32684 2.71474,-0.89837 11.31521,4.23398 46.61813,27.81951 77.86249,68.19383 83.93155,108.45736 4.78031,31.71356 -3.40279,61.35806 -25.0581,90.77674 -7.41665,10.0755 -25.81542,28.01909 -38.25191,37.30557 -9.94353,7.42497 -24.44152,16.74913 -28.19864,18.13553 -1.05398,0.38893 -9.02263,-5.39762 -23.73858,-17.2381 z"
             id="path4520"
             inkscape:connector-curvature="0" />
        </g>
      </g>
    </clipPath>
    <linearGradient
       y2="253.65985"
       x2="29.757338"
       y1="253.45287"
       x1="152.76392"
       gradientTransform="translate(109.21507,152.20307)"
       gradientUnits="userSpaceOnUse"
       id="linearGradient4522"
       xlink:href="#linearGradient8418"
       inkscape:collect="always" />
    <linearGradient
       y2="242.22563"
       x2="547.54224"
       y1="242.22563"
       x1="418.72684"
       gradientTransform="translate(109.21507,152.20307)"
       gradientUnits="userSpaceOnUse"
       id="linearGradient4524"
       xlink:href="#linearGradient8430"
       inkscape:collect="always" />
    <clipPath
       id="clipPath4668"
       clipPathUnits="userSpaceOnUse">
      <g
         id="g4670">
        <ellipse
           transform="scale(-1,1)"
           ry="176.7767"
           rx="280.82242"
           cy="394.58667"
           cx="-392.99945"
           id="ellipse4672"
           style="opacity:0.73600003;fill:#ffffff;fill-opacity:1;stroke:#000000;stroke-width:4.79799986;stroke-miterlimit:4;stroke-dasharray:none;stroke-opacity:1" />
        <path
           inkscape:connector-curvature="0"
           id="path4674"
           d="M 346.46956,568.91989 C 498.17391,360.12286 361.74667,218.9081 361.74667,218.9081"
           style="fill:none;fill-rule:evenodd;stroke:#000000;stroke-width:3;stroke-linecap:butt;stroke-linejoin:miter;stroke-miterlimit:4;stroke-dasharray:none;stroke-opacity:1" />
        <path
           style="fill:none;fill-rule:evenodd;stroke:#000000;stroke-width:2;stroke-linecap:butt;stroke-linejoin:miter;stroke-miterlimit:4;stroke-dasharray:none;stroke-opacity:1"
           d="m 172.36138,285.22795 c 72.31034,74.95715 52.76496,147.91744 1.8701,220.19622"
           id="path4676"
           inkscape:connector-curvature="0"
           sodipodi:nodetypes="cc" />
        <path
           style="fill:none;fill-rule:evenodd;stroke:#000000;stroke-width:2;stroke-linecap:butt;stroke-linejoin:miter;stroke-miterlimit:4;stroke-dasharray:none;stroke-opacity:1"
           d="m 613.05927,284.76723 c -72.31034,74.95715 -52.76496,147.91744 -1.8701,220.19622"
           id="path4678"
           inkscape:connector-curvature="0"
           sodipodi:nodetypes="cc" />
        <path
           style="color:#000000;clip-rule:nonzero;display:inline;overflow:visible;visibility:visible;opacity:1;isolation:auto;mix-blend-mode:normal;color-interpolation:sRGB;color-interpolation-filters:linearRGB;solid-color:#000000;solid-opacity:1;fill:#c7beb7;fill-opacity:0.7372549;fill-rule:nonzero;stroke:none;stroke-width:2;stroke-linecap:butt;stroke-linejoin:round;stroke-miterlimit:4;stroke-dasharray:none;stroke-dashoffset:0;stroke-opacity:1;color-rendering:auto;image-rendering:auto;shape-rendering:auto;text-rendering:auto;enable-background:accumulate"
           d="m 363.67468,412.65164 c -46.56689,-7.18006 -88.65531,-20.5089 -121.21831,-38.38824 -12.87606,-7.06984 -33.84011,-20.85135 -33.84011,-22.24607 0,-0.52457 2.26175,-4.30554 5.0261,-8.40214 17.86398,-26.47327 30.53821,-55.05189 36.07933,-81.35382 2.54511,-12.08088 2.50302,-38.61466 -0.0801,-50.50763 -5.20507,-23.96445 -17.98476,-48.45457 -36.37184,-69.70053 l -6.55669,-7.57614 2.2143,-1.80288 c 6.03476,-4.91349 25.72697,-17.36501 36.05441,-22.79745 36.06756,-18.97227 77.73249,-31.619657 123.52979,-37.49746 24.26684,-3.114502 23.77805,-3.177426 29.21953,3.76148 18.69521,23.839899 35.22938,58.67162 42.55623,89.65104 10.61299,44.87391 8.35773,92.9513 -6.51545,138.89597 -10.71811,33.10927 -27.89984,67.54445 -49.17241,98.5501 -6.67771,9.73304 -7.01161,10.04601 -10.87652,10.1948 -2.19303,0.0844 -6.71474,-0.26705 -10.04824,-0.78103 z"
           id="path4680"
           inkscape:connector-curvature="0"
           transform="translate(-30.949907,151.86852)" />
        <path
           style="color:#000000;clip-rule:nonzero;display:inline;overflow:visible;visibility:visible;opacity:1;isolation:auto;mix-blend-mode:normal;color-interpolation:sRGB;color-interpolation-filters:linearRGB;solid-color:#000000;solid-opacity:1;fill:url(#linearGradient4688);fill-opacity:1;fill-rule:nonzero;stroke:none;stroke-width:2;stroke-linecap:butt;stroke-linejoin:round;stroke-miterlimit:4;stroke-dasharray:none;stroke-dashoffset:0;stroke-opacity:1;color-rendering:auto;image-rendering:auto;shape-rendering:auto;text-rendering:auto;enable-background:accumulate"
           d="m 158.7192,487.21065 c -21.27555,-21.31351 -32.62392,-39.08777 -38.99632,-61.0776 -11.1351,-38.4249 -2.17586,-76.16302 26.4313,-111.334 6.32329,-7.77415 25.1996,-25.95141 26.87962,-25.88418 1.50801,0.0603 14.71394,15.97798 20.9152,25.20991 17.32724,25.79539 24.86689,50.93542 23.78168,79.29698 -0.89465,23.38137 -5.68023,40.78419 -18.3335,66.67007 -7.27204,14.87704 -21.16172,38.34297 -24.17651,40.84503 -1.29923,1.07827 -3.79907,-1.00115 -16.50147,-13.72621 z"
           id="path4682"
           inkscape:connector-curvature="0" />
        <path
           style="color:#000000;clip-rule:nonzero;display:inline;overflow:visible;visibility:visible;opacity:1;isolation:auto;mix-blend-mode:normal;color-interpolation:sRGB;color-interpolation-filters:linearRGB;solid-color:#000000;solid-opacity:1;fill:#c73838;fill-opacity:0.7372549;fill-rule:nonzero;stroke:none;stroke-width:2;stroke-linecap:butt;stroke-linejoin:round;stroke-miterlimit:4;stroke-dasharray:none;stroke-dashoffset:0;stroke-opacity:1;color-rendering:auto;image-rendering:auto;shape-rendering:auto;text-rendering:auto;enable-background:accumulate"
           d="m 404.08078,416.2296 c -2.22234,-0.22004 -8.16262,-0.66919 -13.20062,-0.99812 l -9.16001,-0.59805 9.21876,-13.80911 C 461.12273,295.69336 469.98495,186.94659 415.82807,95.413677 413.09009,90.7861 407.88978,83.035338 404.27182,78.189761 l -6.57811,-8.810137 13.2652,-0.281235 c 70.35858,-1.491669 133.12744,11.317809 186.46651,38.052921 15.01922,7.52808 26.44858,14.36479 36.70466,21.95568 l 6.80558,5.03705 -6.24179,6.97156 c -19.77994,22.09254 -33.21781,48.68114 -37.74263,74.67875 -2.39238,13.74567 -1.52458,37.03235 1.91989,51.51778 5.89733,24.80082 17.69372,50.44292 35.18082,76.47344 2.68911,4.00289 4.8893,7.65605 4.8893,8.11813 0,2.00769 -20.64792,15.53284 -36.56186,23.94938 -37.5802,19.87536 -83.50226,33.07404 -133.80986,38.45895 -13.57787,1.45337 -56.33608,2.72479 -64.48875,1.91757 z"
           id="path4684"
           inkscape:connector-curvature="0"
           transform="translate(-30.949907,151.86852)" />
        <path
           style="color:#000000;clip-rule:nonzero;display:inline;overflow:visible;visibility:visible;opacity:1;isolation:auto;mix-blend-mode:normal;color-interpolation:sRGB;color-interpolation-filters:linearRGB;solid-color:#000000;solid-opacity:1;fill:url(#linearGradient4690);fill-opacity:1;fill-rule:nonzero;stroke:none;stroke-width:2;stroke-linecap:butt;stroke-linejoin:round;stroke-miterlimit:4;stroke-dasharray:none;stroke-dashoffset:0;stroke-opacity:1;color-rendering:auto;image-rendering:auto;shape-rendering:auto;text-rendering:auto;enable-background:accumulate"
           d="m 633.84732,337.84496 c -15.38075,-23.49362 -27.90365,-51.70071 -32.88362,-74.06836 -2.49508,-11.20676 -3.01779,-37.48764 -0.96438,-48.48733 4.68751,-25.10998 18.67931,-52.23373 37.77887,-73.23606 l 5.97112,-6.56599 14.55988,14.64721 c 21.61715,21.74681 33.90596,41.56157 39.88352,64.30913 3.8216,14.54305 4.39842,35.1772 1.3932,49.83811 -5.20896,25.41184 -18.42695,48.65937 -39.93485,70.2366 -5.00118,5.0173 -11.01919,10.61938 -13.37334,12.44905 l -4.28028,3.3267 -8.15012,-12.44906 z"
           id="path4686"
           inkscape:connector-curvature="0"
           transform="translate(-30.949907,151.86852)" />
      </g>
    </clipPath>
    <linearGradient
       y2="242.71815"
       x2="143.12694"
       y1="244.19093"
       x1="283.4162"
       gradientTransform="translate(-30.949909,151.86852)"
       gradientUnits="userSpaceOnUse"
       id="linearGradient4688"
       xlink:href="#linearGradient8418"
       inkscape:collect="always" />
    <linearGradient
       y2="242.89062"
       x2="701.50254"
       y1="242.89062"
       x1="598.73057"
       gradientUnits="userSpaceOnUse"
       id="linearGradient4690"
       xlink:href="#linearGradient4571"
       inkscape:collect="always" />
    <clipPath
       id="clipPath4767"
       clipPathUnits="userSpaceOnUse">
      <ellipse
         style="opacity:0.73600003;fill:#ffffff;fill-opacity:1;stroke:#000000;stroke-width:4.79799986;stroke-miterlimit:4;stroke-dasharray:none;stroke-opacity:1"
         id="ellipse4769"
         cx="-392.2225"
         cy="398.68689"
         rx="280.82242"
         ry="176.7767"
         transform="scale(-1,1)" />
    </clipPath>
    <clipPath
       id="clipPath4395"
       clipPathUnits="userSpaceOnUse">
      <ellipse
         style="opacity:0.73600003;fill:#000000;fill-opacity:1;stroke:#000000;stroke-width:4.79799986;stroke-miterlimit:4;stroke-dasharray:none;stroke-opacity:1"
         id="ellipse4397"
         cx="-392.2225"
         cy="398.68689"
         rx="280.82242"
         ry="176.7767"
         transform="scale(-1,1)" />
    </clipPath>
    <pattern
       patternTransform="matrix(10,0,0,10,-559.09528,189.39948)"
       id="pattern5869-6"
       xlink:href="#Strips1_1-4"
       inkscape:collect="always" />
    <pattern
       inkscape:collect="always"
       patternUnits="userSpaceOnUse"
       width="2"
       height="1"
       patternTransform="translate(0,0) scale(10,10)"
       id="Strips1_1-4"
       inkscape:stockid="Stripes 1:1"
       inkscape:isstock="true">
      <rect
         style="fill:black;stroke:none"
         x="0"
         y="-0.5"
         width="1"
         height="2"
         id="rect5128-0" />
    </pattern>
    <clipPath
       id="clipPath4395-0"
       clipPathUnits="userSpaceOnUse">
      <ellipse
         style="opacity:0.73600003;fill:#000000;fill-opacity:1;stroke:#000000;stroke-width:4.79799986;stroke-miterlimit:4;stroke-dasharray:none;stroke-opacity:1"
         id="ellipse4397-4"
         cx="-392.2225"
         cy="398.68689"
         rx="280.82242"
         ry="176.7767"
         transform="scale(-1,1)" />
    </clipPath>
  </defs>
  <metadata
     id="metadata5866">
    <rdf:RDF>
      <cc:Work
         rdf:about="">
        <dc:format>image/svg+xml</dc:format>
        <dc:type
           rdf:resource="http://purl.org/dc/dcmitype/StillImage" />
        <dc:title />
      </cc:Work>
    </rdf:RDF>
  </metadata>
  <g
     inkscape:label="Layer 1"
     inkscape:groupmode="layer"
     id="layer1"
     transform="translate(30.949907,-151.86854)">
    <text
       xml:space="preserve"
       style="font-style:normal;font-weight:normal;font-size:40px;line-height:125%;font-family:sans-serif;letter-spacing:0px;word-spacing:0px;fill:#000000;fill-opacity:1;stroke:none;stroke-width:1px;stroke-linecap:butt;stroke-linejoin:miter;stroke-opacity:1"
       x="483.98166"
       y="192.60373"
       id="text4207"
       sodipodi:linespacing="125%"><tspan
         sodipodi:role="line"
         id="tspan4209"
         x="483.98166"
         y="192.60373" /></text>
    <text
       xml:space="preserve"
       style="font-style:normal;font-weight:normal;font-size:40px;line-height:125%;font-family:sans-serif;letter-spacing:0px;word-spacing:0px;fill:#000000;fill-opacity:1;stroke:none;stroke-width:1px;stroke-linecap:butt;stroke-linejoin:miter;stroke-opacity:1"
       x="454.68723"
       y="192.60373"
       id="text4211"
       sodipodi:linespacing="125%"><tspan
         sodipodi:role="line"
         id="tspan4213"
         x="454.68723"
         y="192.60373" /></text>
    <text
       xml:space="preserve"
       style="font-style:normal;font-weight:normal;font-size:40px;line-height:125%;font-family:sans-serif;letter-spacing:0px;word-spacing:0px;fill:#000000;fill-opacity:1;stroke:none;stroke-width:1px;stroke-linecap:butt;stroke-linejoin:miter;stroke-opacity:1"
       x="4.1591997"
       y="500.3429"
       id="text6851"
       sodipodi:linespacing="125%"><tspan
         sodipodi:role="line"
         id="tspan6853"
         x="4.1591997"
         y="500.3429" /></text>
    <text
       xml:space="preserve"
       style="font-style:normal;font-weight:normal;font-size:40px;line-height:125%;font-family:sans-serif;letter-spacing:0px;word-spacing:0px;fill:#000000;fill-opacity:1;stroke:none;stroke-width:1px;stroke-linecap:butt;stroke-linejoin:miter;stroke-opacity:1"
       x="29.413023"
       y="566.00281"
       id="text6855"
       sodipodi:linespacing="125%"><tspan
         sodipodi:role="line"
         id="tspan6857"
         x="29.413023"
         y="566.00281" /></text>
    <text
       xml:space="preserve"
       style="font-style:normal;font-weight:normal;font-size:40px;line-height:125%;font-family:sans-serif;letter-spacing:0px;word-spacing:0px;fill:#000000;fill-opacity:1;stroke:none;stroke-width:1px;stroke-linecap:butt;stroke-linejoin:miter;stroke-opacity:1"
       x="120.32675"
       y="558.93176"
       id="text6859"
       sodipodi:linespacing="125%"><tspan
         sodipodi:role="line"
         id="tspan6861"
         x="120.32675"
         y="558.93176" /></text>
    <g
       transform="translate(-1.2451759,-0.55625148)"
       id="g3477" />
  </g>
  <g
     id="g7262">
    <ellipse
       transform="matrix(-1,0,0,1,30.949907,-151.86854)"
       ry="176.7767"
       rx="280.82242"
       cy="409.28741"
       cx="-378.46063"
       id="path5881-6-6-5"
       style="opacity:0.73600003;fill:#ffffff;fill-opacity:1;stroke:#000000;stroke-width:4.79799986;stroke-miterlimit:4;stroke-dasharray:none;stroke-opacity:1" />
    <g
       id="g3455"
       transform="translate(23.736103,-155.99382)"
       style="">
      <path
         sodipodi:nodetypes="cc"
         style="fill:none;fill-rule:evenodd;stroke:#000000;stroke-width:1px;stroke-linecap:butt;stroke-linejoin:miter;stroke-opacity:1;marker-end:url(#marker6987)"
         d="M 136.11454,576.10964 167.17636,461.09096"
         id="path7013"
         inkscape:connector-curvature="0" />
    </g>
    <ellipse
       style="color:#000000;clip-rule:nonzero;display:inline;overflow:visible;visibility:visible;opacity:1;isolation:auto;mix-blend-mode:normal;color-interpolation:sRGB;color-interpolation-filters:linearRGB;solid-color:#000000;solid-opacity:1;fill:url(#pattern5869);fill-opacity:1;fill-rule:nonzero;stroke:#000000;stroke-width:0.80000001;stroke-linecap:butt;stroke-linejoin:miter;stroke-miterlimit:10.43299961;stroke-dasharray:none;stroke-dashoffset:0;stroke-opacity:1;color-rendering:auto;image-rendering:auto;shape-rendering:auto;text-rendering:auto;enable-background:accumulate"
       id="path4372"
       cx="147.84709"
       cy="425.5524"
       rx="194.95944"
       ry="198.49498"
       clip-path="url(#clipPath4395)"
       transform="translate(17.188036,-141.26802)" />
    <g
       id="g7206"
       style=""
       transform="translate(29.704731,-152.4248)">
      <path
         sodipodi:nodetypes="cc"
         inkscape:connector-curvature="0"
         id="path6833"
         d="m 226.71507,177.82899 74.39624,62.30247"
         style="fill:none;fill-rule:evenodd;stroke:#000000;stroke-width:1px;stroke-linecap:butt;stroke-linejoin:miter;stroke-opacity:1;marker-end:url(#Arrow1Lend)" />
      <g
         transform="translate(-77.450436,39.007417)"
         id="g4547">
        <g
           style="font-style:normal;font-variant:normal;font-weight:normal;font-stretch:normal;letter-spacing:normal;word-spacing:normal;text-anchor:start;fill:none;fill-opacity:1;fill-rule:evenodd;stroke:#000000;stroke-linecap:butt;stroke-linejoin:miter;stroke-miterlimit:10.43299961;stroke-dasharray:none;stroke-dashoffset:0;stroke-opacity:1"
           id="g4731"
           transform="matrix(0.70370236,0,0,-0.70370236,-123.14791,430.1471)"
           xml:space="preserve"
           stroke-miterlimit="10.433"
           font-style="normal"
           font-variant="normal"
           font-weight="normal"
           font-stretch="normal"
           font-size-adjust="none"
           letter-spacing="normal"
           word-spacing="normal"><path
             style="fill:#000000;stroke-width:0"
             inkscape:connector-curvature="0"
             d="m 467.31,421.74 -0.15,1.3 0,13.44 c 0,1.65 0.1,2 2.44,2 l 4.43,0 c 7.92,0 7.92,-5.28 7.92,-7.72 0,-2.35 0,-7.72 -7.92,-7.72 l -6.87,0 0.15,-1.3 8.42,0 c 5.97,0 11.35,4.04 11.35,9.02 0,4.88 -4.93,9.26 -11.75,9.26 l -17.59,0 0,-1.54 1.2,0 c 3.83,0 3.94,-0.55 3.94,-2.34 l 0,-26.25 c 0,-1.8 -0.11,-2.35 -3.94,-2.35 l -1.2,0 0,-1.54 14.7,0 0,1.54 -1.2,0 c -3.83,0 -3.93,0.55 -3.93,2.35 z"
             id="path4550" /><path
             style="fill:#000000;stroke-width:0"
             inkscape:connector-curvature="0"
             d="m 504.59,409.79 0.02,-0.19 0.03,-0.19 0.03,-0.19 0.04,-0.18 0.05,-0.19 0.06,-0.18 0.06,-0.18 0.07,-0.18 0.07,-0.18 0.08,-0.18 0.09,-0.17 0.1,-0.16 0.1,-0.17 0.1,-0.15 0.12,-0.16 0.12,-0.14 0.12,-0.15 0.13,-0.13 0.14,-0.13 0.15,-0.12 0.15,-0.12 0.15,-0.1 0.17,-0.1 0.17,-0.09 0.17,-0.08 0.18,-0.07 0.19,-0.07 0.19,-0.05 0.2,-0.04 0.21,-0.03 0.21,-0.01 0.21,-0.01 c 1.05,0 4.09,0.7 4.09,4.73 l 0,2.79 -1.25,0 0,-2.79 c 0,-2.89 -1.24,-3.18 -1.79,-3.18 -1.64,0 -1.84,2.24 -1.84,2.48 l 0,9.97 c 0,2.09 0,4.03 -1.8,5.88 -1.94,1.94 -4.43,2.74 -6.82,2.74 -4.09,0 -7.52,-2.34 -7.52,-5.63 0,-1.5 0.99,-2.34 2.29,-2.34 1.39,0 2.29,0.99 2.29,2.29 0,0.59 -0.25,2.24 -2.54,2.29 1.35,1.74 3.78,2.29 5.38,2.29 2.44,0 5.28,-1.94 5.28,-6.38 l 0,-1.84 0,-1.04 0,-4.99 c 0,-4.73 -3.59,-6.42 -5.83,-6.42 -2.44,0 -4.48,1.74 -4.48,4.23 0,2.74 2.09,6.88 10.31,7.18 l 0,0 0,1.04 c -2.54,-0.15 -6.03,-0.3 -9.17,-1.79 -3.73,-1.69 -4.98,-4.28 -4.98,-6.48 0,-4.03 4.84,-5.28 7.97,-5.28 3.29,0 5.58,2 6.53,4.34 z"
             id="path4552" /><path
             style="fill:#000000;stroke-width:0"
             inkscape:connector-curvature="0"
             d="m 521.32,422.54 0,5.48 -6.92,-0.55 0,-1.54 c 3.48,0 3.88,-0.35 3.88,-2.79 l 0,-13.35 c 0,-2.25 -0.55,-2.25 -3.88,-2.25 l 0,-1.54 12,0 0,1.54 -1.05,0 c -3.68,0 -3.78,0.55 -3.78,2.35 l 0,7.66 c 0,4.94 2.09,9.37 5.88,9.37 0.34,0 0.45,0 0.54,-0.05 -0.15,-0.05 -1.14,-0.65 -1.14,-1.94 0,-1.39 1.05,-2.14 2.14,-2.14 0.9,0 2.14,0.59 2.14,2.19 0,1.59 -1.54,3.04 -3.68,3.04 -3.64,0 -5.43,-3.34 -6.13,-5.48 z"
             id="path4554" /><path
             style="fill:#000000;stroke-width:0"
             inkscape:connector-curvature="0"
             d="m 541.82,428.02 -6.98,-0.55 0,-1.54 c 3.24,0 3.69,-0.31 3.69,-2.75 l 0,-13.39 c 0,-2.25 -0.55,-2.25 -3.88,-2.25 l 0,-1.54 10.65,0 0,1.54 c -3.28,0 -3.48,0.25 -3.48,2.19 z"
             id="path4556" /><path
             style="fill:#000000;stroke-width:0"
             inkscape:connector-curvature="0"
             d="m 542.02,436.68 -0.01,0.15 -0.01,0.15 -0.02,0.14 -0.02,0.13 -0.03,0.14 -0.04,0.13 -0.04,0.13 -0.05,0.12 -0.06,0.12 -0.06,0.11 -0.06,0.11 -0.07,0.11 -0.08,0.1 -0.08,0.1 -0.08,0.09 -0.09,0.09 -0.09,0.09 -0.1,0.07 -0.1,0.08 -0.11,0.07 -0.1,0.06 -0.11,0.06 -0.12,0.06 -0.11,0.05 -0.12,0.04 -0.12,0.04 -0.13,0.03 -0.12,0.03 -0.13,0.02 -0.13,0.01 -0.12,0.01 -0.13,0 c -1.55,0 -2.65,-1.34 -2.65,-2.64 0,-1.34 1.1,-2.64 2.65,-2.64 1.39,0 2.64,1.05 2.64,2.64 z"
             id="path4558" /><path
             style="fill:#000000;stroke-width:0"
             inkscape:connector-curvature="0"
             d="m 554.62,425.93 7.12,0 0,1.54 -7.12,0 0,9.17 -1.25,0 c -0.05,-4.09 -1.54,-9.42 -6.42,-9.62 l 0,-1.09 4.23,0 0,-13.75 c 0,-6.13 4.63,-6.73 6.42,-6.73 3.55,0 4.94,3.54 4.94,6.73 l 0,2.84 -1.25,0 0,-2.74 c 0,-3.69 -1.49,-5.58 -3.33,-5.58 -3.34,0 -3.34,4.53 -3.34,5.38 z"
             id="path4560" /><path
             style="fill:#000000;stroke-width:0"
             inkscape:connector-curvature="0"
             d="m 584.67,422.74 0.06,0.14 0.07,0.14 0.06,0.14 0.07,0.13 0.07,0.13 0.07,0.12 0.07,0.12 0.07,0.12 0.15,0.21 0.15,0.21 0.16,0.19 0.16,0.17 0.16,0.16 0.17,0.15 0.17,0.13 0.17,0.13 0.17,0.11 0.17,0.1 0.17,0.09 0.17,0.08 0.16,0.07 0.17,0.06 0.16,0.06 0.16,0.04 0.16,0.04 0.15,0.04 0.15,0.03 0.14,0.02 0.13,0.02 0.13,0.01 0.13,0.01 0.11,0.01 0.11,0 0.1,0 0.09,0.01 0.07,0 0,1.54 -8.07,0 0,-1.54 c 1.55,-0.05 2.35,-0.9 2.35,-2.14 0,-0.5 -0.05,-0.61 -0.3,-1.2 l -5.03,-12.26 -5.53,13.4 c -0.2,0.5 -0.3,0.7 -0.3,0.9 0,1.3 1.84,1.3 2.79,1.3 l 0,1.54 -10.26,0 0,-1.54 c 2.39,0 3.33,0 4.03,-1.75 L 576.45,406 c -0.25,-0.65 -0.94,-2.29 -1.24,-2.94 -1.1,-2.74 -2.49,-6.18 -5.68,-6.18 -0.25,0 -1.4,0 -2.34,0.9 1.54,0.2 1.94,1.29 1.94,2.09 0,1.3 -0.95,2.09 -2.09,2.09 -1,0 -2.09,-0.64 -2.09,-2.14 0,-2.24 2.09,-4.03 4.58,-4.03 3.14,0 5.18,2.84 6.38,5.68 z"
             id="path4562" /></g>      </g>
      <g
         id="g7069"
         transform="translate(-157.14286,312.85714)">
        <g
           word-spacing="normal"
           letter-spacing="normal"
           font-size-adjust="none"
           font-stretch="normal"
           font-weight="normal"
           font-variant="normal"
           font-style="normal"
           stroke-miterlimit="10.433"
           xml:space="preserve"
           transform="matrix(0.67598428,0,0,-0.67598428,-118.29725,550.35873)"
           id="content"
           style="font-style:normal;font-variant:normal;font-weight:normal;font-stretch:normal;letter-spacing:normal;word-spacing:normal;text-anchor:start;fill:none;fill-opacity:1;fill-rule:evenodd;stroke:#000000;stroke-linecap:butt;stroke-linejoin:miter;stroke-miterlimit:10.43299961;stroke-dasharray:none;stroke-dashoffset:0;stroke-opacity:1"><path
             id="path7072"
             d="m 467.31,421.74 -0.15,1.3 0,13.44 c 0,1.65 0.1,2 2.44,2 l 4.43,0 c 7.92,0 7.92,-5.28 7.92,-7.72 0,-2.35 0,-7.72 -7.92,-7.72 l -6.87,0 0.15,-1.3 8.42,0 c 5.97,0 11.35,4.04 11.35,9.02 0,4.88 -4.93,9.26 -11.75,9.26 l -17.59,0 0,-1.54 1.2,0 c 3.83,0 3.94,-0.55 3.94,-2.34 l 0,-26.25 c 0,-1.8 -0.11,-2.35 -3.94,-2.35 l -1.2,0 0,-1.54 14.7,0 0,1.54 -1.2,0 c -3.83,0 -3.93,0.55 -3.93,2.35 z"
             inkscape:connector-curvature="0"
             style="fill:#000000;stroke-width:0" /><path
             id="path7074"
             d="m 504.59,409.79 0.02,-0.19 0.03,-0.19 0.03,-0.19 0.04,-0.18 0.05,-0.19 0.06,-0.18 0.06,-0.18 0.07,-0.18 0.07,-0.18 0.08,-0.18 0.09,-0.17 0.1,-0.16 0.1,-0.17 0.1,-0.15 0.12,-0.16 0.12,-0.14 0.12,-0.15 0.13,-0.13 0.14,-0.13 0.15,-0.12 0.15,-0.12 0.15,-0.1 0.17,-0.1 0.17,-0.09 0.17,-0.08 0.18,-0.07 0.19,-0.07 0.19,-0.05 0.2,-0.04 0.21,-0.03 0.21,-0.01 0.21,-0.01 c 1.05,0 4.09,0.7 4.09,4.73 l 0,2.79 -1.25,0 0,-2.79 c 0,-2.89 -1.24,-3.18 -1.79,-3.18 -1.64,0 -1.84,2.24 -1.84,2.48 l 0,9.97 c 0,2.09 0,4.03 -1.8,5.88 -1.94,1.94 -4.43,2.74 -6.82,2.74 -4.09,0 -7.52,-2.34 -7.52,-5.63 0,-1.5 0.99,-2.34 2.29,-2.34 1.39,0 2.29,0.99 2.29,2.29 0,0.59 -0.25,2.24 -2.54,2.29 1.35,1.74 3.78,2.29 5.38,2.29 2.44,0 5.28,-1.94 5.28,-6.38 l 0,-1.84 0,-1.04 0,-4.99 c 0,-4.73 -3.59,-6.42 -5.83,-6.42 -2.44,0 -4.48,1.74 -4.48,4.23 0,2.74 2.09,6.88 10.31,7.18 l 0,0 0,1.04 c -2.54,-0.15 -6.03,-0.3 -9.17,-1.79 -3.73,-1.69 -4.98,-4.28 -4.98,-6.48 0,-4.03 4.84,-5.28 7.97,-5.28 3.29,0 5.58,2 6.53,4.34 z"
             inkscape:connector-curvature="0"
             style="fill:#000000;stroke-width:0" /><path
             id="path7076"
             d="m 521.32,422.54 0,5.48 -6.92,-0.55 0,-1.54 c 3.48,0 3.88,-0.35 3.88,-2.79 l 0,-13.35 c 0,-2.25 -0.55,-2.25 -3.88,-2.25 l 0,-1.54 12,0 0,1.54 -1.05,0 c -3.68,0 -3.78,0.55 -3.78,2.35 l 0,7.66 c 0,4.94 2.09,9.37 5.88,9.37 0.34,0 0.45,0 0.54,-0.05 -0.15,-0.05 -1.14,-0.65 -1.14,-1.94 0,-1.39 1.05,-2.14 2.14,-2.14 0.9,0 2.14,0.59 2.14,2.19 0,1.59 -1.54,3.04 -3.68,3.04 -3.64,0 -5.43,-3.34 -6.13,-5.48 z"
             inkscape:connector-curvature="0"
             style="fill:#000000;stroke-width:0" /><path
             id="path7078"
             d="m 541.82,428.02 -6.98,-0.55 0,-1.54 c 3.24,0 3.69,-0.31 3.69,-2.75 l 0,-13.39 c 0,-2.25 -0.55,-2.25 -3.88,-2.25 l 0,-1.54 10.65,0 0,1.54 c -3.28,0 -3.48,0.25 -3.48,2.19 z"
             inkscape:connector-curvature="0"
             style="fill:#000000;stroke-width:0" /><path
             id="path7080"
             d="m 542.02,436.68 -0.01,0.15 -0.01,0.15 -0.02,0.14 -0.02,0.13 -0.03,0.14 -0.04,0.13 -0.04,0.13 -0.05,0.12 -0.06,0.12 -0.06,0.11 -0.06,0.11 -0.07,0.11 -0.08,0.1 -0.08,0.1 -0.08,0.09 -0.09,0.09 -0.09,0.09 -0.1,0.07 -0.1,0.08 -0.11,0.07 -0.1,0.06 -0.11,0.06 -0.12,0.06 -0.11,0.05 -0.12,0.04 -0.12,0.04 -0.13,0.03 -0.12,0.03 -0.13,0.02 -0.13,0.01 -0.12,0.01 -0.13,0 c -1.55,0 -2.65,-1.34 -2.65,-2.64 0,-1.34 1.1,-2.64 2.65,-2.64 1.39,0 2.64,1.05 2.64,2.64 z"
             inkscape:connector-curvature="0"
             style="fill:#000000;stroke-width:0" /><path
             id="path7082"
             d="m 554.62,425.93 7.12,0 0,1.54 -7.12,0 0,9.17 -1.25,0 c -0.05,-4.09 -1.54,-9.42 -6.42,-9.62 l 0,-1.09 4.23,0 0,-13.75 c 0,-6.13 4.63,-6.73 6.42,-6.73 3.55,0 4.94,3.54 4.94,6.73 l 0,2.84 -1.25,0 0,-2.74 c 0,-3.69 -1.49,-5.58 -3.33,-5.58 -3.34,0 -3.34,4.53 -3.34,5.38 z"
             inkscape:connector-curvature="0"
             style="fill:#000000;stroke-width:0" /><path
             id="path7084"
             d="m 584.67,422.74 0.06,0.14 0.07,0.14 0.06,0.14 0.07,0.13 0.07,0.13 0.07,0.12 0.07,0.12 0.07,0.12 0.15,0.21 0.15,0.21 0.16,0.19 0.16,0.17 0.16,0.16 0.17,0.15 0.17,0.13 0.17,0.13 0.17,0.11 0.17,0.1 0.17,0.09 0.17,0.08 0.16,0.07 0.17,0.06 0.16,0.06 0.16,0.04 0.16,0.04 0.15,0.04 0.15,0.03 0.14,0.02 0.13,0.02 0.13,0.01 0.13,0.01 0.11,0.01 0.11,0 0.1,0 0.09,0.01 0.07,0 0,1.54 -8.07,0 0,-1.54 c 1.55,-0.05 2.35,-0.9 2.35,-2.14 0,-0.5 -0.05,-0.61 -0.3,-1.2 l -5.03,-12.26 -5.53,13.4 c -0.2,0.5 -0.3,0.7 -0.3,0.9 0,1.3 1.84,1.3 2.79,1.3 l 0,1.54 -10.26,0 0,-1.54 c 2.39,0 3.33,0 4.03,-1.75 L 576.45,406 c -0.25,-0.65 -0.94,-2.29 -1.24,-2.94 -1.1,-2.74 -2.49,-6.18 -5.68,-6.18 -0.25,0 -1.4,0 -2.34,0.9 1.54,0.2 1.94,1.29 1.94,2.09 0,1.3 -0.95,2.09 -2.09,2.09 -1,0 -2.09,-0.64 -2.09,-2.14 0,-2.24 2.09,-4.03 4.58,-4.03 3.14,0 5.18,2.84 6.38,5.68 z"
             inkscape:connector-curvature="0"
             style="fill:#000000;stroke-width:0" /><path
             id="path7086"
             d="m 595.25,396.2 -0.01,-0.05 -0.01,-0.04 -0.02,-0.05 -0.01,-0.05 -0.02,-0.05 -0.01,-0.06 -0.02,-0.05 -0.01,-0.05 -0.03,-0.12 -0.03,-0.11 -0.03,-0.11 -0.02,-0.11 -0.02,-0.05 -0.01,-0.06 -0.01,-0.05 -0.01,-0.05 -0.01,-0.04 -0.01,-0.05 -0.01,-0.04 -0.01,-0.04 -0.01,-0.04 0,-0.03 -0.01,-0.03 0,-0.03 -0.01,-0.03 0,-0.02 0,0 0,-0.01 0,-0.01 0,0 c 0,-0.77 0.62,-1.12 1.18,-1.12 0.63,0 1.19,0.46 1.36,0.77 0.17,0.31 0.45,1.43 0.63,2.16 0.17,0.66 0.56,2.27 0.76,3.14 0.21,0.76 0.43,1.53 0.6,2.33 0.38,1.43 0.45,1.71 1.46,3.14 0.98,1.4 2.62,3.21 5.23,3.21 2.03,0 2.06,-1.78 2.06,-2.44 0,-2.09 -1.5,-5.96 -2.06,-7.43 -0.38,-0.97 -0.52,-1.29 -0.52,-1.88 0,-1.85 1.54,-3 3.31,-3 3.49,0 5.03,4.81 5.03,5.33 0,0.46 -0.46,0.46 -0.56,0.46 -0.49,0 -0.53,-0.21 -0.67,-0.59 -0.8,-2.79 -2.3,-4.22 -3.69,-4.22 -0.73,0 -0.87,0.49 -0.87,1.22 0,0.8 0.17,1.25 0.8,2.82 0.42,1.08 1.84,4.78 1.84,6.73 0,3.39 -2.68,3.98 -4.53,3.98 -2.89,0 -4.84,-1.78 -5.89,-3.18 -0.24,2.41 -2.3,3.18 -3.73,3.18 -1.5,0 -2.3,-1.08 -2.75,-1.88 -0.77,-1.3 -1.26,-3.29 -1.26,-3.46 0,-0.45 0.49,-0.45 0.59,-0.45 0.49,0 0.52,0.11 0.77,1.05 0.52,2.05 1.18,3.76 2.54,3.76 0.91,0 1.16,-0.77 1.16,-1.71 0,-0.66 -0.32,-1.95 -0.56,-2.89 -0.24,-0.94 -0.6,-2.37 -0.77,-3.14 z"
             inkscape:connector-curvature="0"
             style="fill:#000000;stroke-width:0" /></g>      </g>
    </g>
    <path
       inkscape:connector-curvature="0"
       id="path4179-2"
       d="M 378.46063,586.06412 C 530.16498,377.26709 407.68398,233.47049 407.68398,233.47049"
       style="fill:none;fill-rule:evenodd;stroke:#000000;stroke-width:3;stroke-linecap:butt;stroke-linejoin:miter;stroke-miterlimit:4;stroke-dasharray:none;stroke-opacity:1"
       sodipodi:nodetypes="cc"
       transform="translate(30.949907,-151.86854)" />
    <path
       style="fill:none;fill-rule:evenodd;stroke:#000000;stroke-width:2;stroke-linecap:butt;stroke-linejoin:miter;stroke-miterlimit:4;stroke-dasharray:none;stroke-opacity:1"
       d="m 184.82134,281.25791 c 72.31034,74.95715 35.78451,173.99692 -15.11035,246.2757"
       id="path4546-9"
       inkscape:connector-curvature="0"
       sodipodi:nodetypes="cc"
       transform="translate(30.949907,-151.86854)" />
    <path
       style="color:#000000;clip-rule:nonzero;display:inline;overflow:visible;visibility:visible;opacity:1;isolation:auto;mix-blend-mode:normal;color-interpolation:sRGB;color-interpolation-filters:linearRGB;solid-color:#000000;solid-opacity:1;fill:#ffaaaa;fill-opacity:1;fill-rule:nonzero;stroke:#000000;stroke-width:0.80812204;stroke-linecap:butt;stroke-linejoin:miter;stroke-miterlimit:10.43299961;stroke-dasharray:none;stroke-dashoffset:0;stroke-opacity:1;color-rendering:auto;image-rendering:auto;shape-rendering:auto;text-rendering:auto;enable-background:accumulate"
       d="m 414.49593,431.2035 c 0,-0.2801 3.45659,-5.64209 7.68132,-11.91553 33.42306,-49.63108 54.25553,-100.46337 62.21895,-151.81747 2.96716,-19.13441 3.21459,-58.66739 0.47734,-76.26651 -5.83042,-37.48673 -18.22252,-71.37086 -36.11205,-98.742414 l -4.78658,-7.323606 2.89955,0 c 5.02449,0 33.33643,3.884574 44.39306,6.091004 35.81165,7.146468 64.82084,16.987286 93.94419,31.868766 25.86169,13.21484 44.71524,26.92245 62.55975,45.48451 16.3841,17.04294 27.1109,33.97942 33.38859,52.71709 20.64854,61.63177 -12.44424,124.04453 -88.3722,166.66933 -31.23988,17.5376 -76.57411,32.24229 -118.69292,38.49945 -18.02992,2.67852 -59.599,5.98136 -59.599,4.73538 z"
       id="path5871"
       inkscape:connector-curvature="0"
       transform="translate(0,-2e-5)" />
    <path
       style="color:#000000;clip-rule:nonzero;display:inline;overflow:visible;visibility:visible;opacity:1;isolation:auto;mix-blend-mode:normal;color-interpolation:sRGB;color-interpolation-filters:linearRGB;solid-color:#000000;solid-opacity:1;fill:#81d844;fill-opacity:1;fill-rule:nonzero;stroke:#000000;stroke-width:0.80812204;stroke-linecap:butt;stroke-linejoin:miter;stroke-miterlimit:10.43299961;stroke-dasharray:none;stroke-dashoffset:0;stroke-opacity:1;color-rendering:auto;image-rendering:auto;shape-rendering:auto;text-rendering:auto;enable-background:accumulate"
       d="m 189.92352,363.73934 c -5.93622,-4.75574 -10.80323,-9.18778 -10.81556,-9.84899 -0.0123,-0.6612 2.11517,-9.08293 4.72779,-18.71494 4.71832,-17.39522 4.76239,-17.49692 6.56595,-15.15229 1.78718,2.32333 1.8161,2.21347 1.83821,-6.98345 0.0123,-5.13915 -0.3803,-9.34391 -0.87257,-9.34391 -0.85306,0 -9.2065,13.2829 -9.2065,14.63936 0,0.35698 0.90914,0.36053 2.02031,0.008 1.11117,-0.35268 2.0203,-0.41243 2.0203,-0.13279 0,1.21117 -8.36212,31.57683 -9.03086,32.79408 -0.52229,0.9507 -2.96153,-1.04494 -8.29724,-6.78832 -19.53675,-21.02963 -31.01805,-42.95823 -35.75999,-68.2996 -2.21742,-11.85012 -1.51927,-32.61552 1.50547,-44.77787 5.85718,-23.55147 19.13248,-45.60003 39.94223,-66.33891 12.41476,-12.37249 38.01319,-31.81981 41.88429,-31.81981 1.25433,0 11.91157,13.24667 16.7795,20.85648 35.51797,55.52351 26.82347,127.58914 -25.05721,207.69054 -3.86833,5.97252 -7.1273,10.85914 -7.24216,10.85914 -0.11485,0 -5.06574,-3.89106 -11.00196,-8.6468 z"
       id="path5873"
       inkscape:connector-curvature="0"
       transform="translate(0,-2e-5)" />
    <g
       id="g3432"
       transform="translate(45.32608,-157.13118)"
       style="">
      <g
         transform="matrix(3.7292532,0,0,2.9409812,-775.24576,-48.43488)"
         id="g6077">
        <g
           style="font-style:normal;font-variant:normal;font-weight:normal;font-stretch:normal;letter-spacing:normal;word-spacing:normal;text-anchor:start;fill:none;fill-opacity:1;fill-rule:evenodd;stroke:#000000;stroke-linecap:butt;stroke-linejoin:miter;stroke-miterlimit:10.43299961;stroke-dasharray:none;stroke-dashoffset:0;stroke-opacity:1"
           id="g6079"
           transform="matrix(0.70370236,0,0,-0.70370236,-123.14791,430.1471)"
           xml:space="preserve"
           stroke-miterlimit="10.433"
           font-style="normal"
           font-variant="normal"
           font-weight="normal"
           font-stretch="normal"
           font-size-adjust="none"
           letter-spacing="normal"
           word-spacing="normal"><path
             style="fill:#000000;stroke-width:0"
             inkscape:connector-curvature="0"
             d="m 484.99,418.85 -1.24,0 c -0.55,-5.08 -1.25,-11.31 -10.02,-11.31 l -4.08,0 c -2.34,0 -2.44,0.35 -2.44,2 l 0,26.55 c 0,1.69 0,2.39 4.73,2.39 l 1.65,0 0,1.54 -15.95,0 0,-1.54 1.2,0 c 3.84,0 3.93,-0.55 3.93,-2.34 l 0,-26.25 c 0,-1.8 -0.09,-2.35 -3.93,-2.35 l -1.2,0 0,-1.54 25.96,0 z"
             id="path6081" /></g>      </g>
      <path
         sodipodi:nodetypes="cc"
         style="fill:none;fill-rule:evenodd;stroke:#000000;stroke-width:1px;stroke-linecap:butt;stroke-linejoin:miter;stroke-opacity:1;marker-end:url(#Arrow1Lend-3)"
         d="m 9.902865,387.41361 c 3.830341,57.18434 190.825685,37.43622 240.785915,41.25461"
         id="path6833-7"
         inkscape:connector-curvature="0" />
    </g>
    <ellipse
       style="color:#000000;clip-rule:nonzero;display:inline;overflow:visible;visibility:visible;opacity:1;isolation:auto;mix-blend-mode:normal;color-interpolation:sRGB;color-interpolation-filters:linearRGB;solid-color:#000000;solid-opacity:1;fill:url(#pattern5869-6);fill-opacity:1;fill-rule:nonzero;stroke:#000000;stroke-width:0.80000001;stroke-linecap:butt;stroke-linejoin:miter;stroke-miterlimit:10.43299961;stroke-dasharray:none;stroke-dashoffset:0;stroke-opacity:1;color-rendering:auto;image-rendering:auto;shape-rendering:auto;text-rendering:auto;enable-background:accumulate"
       id="path4372-1"
       cx="147.84709"
       cy="425.5524"
       rx="194.95944"
       ry="198.49498"
       clip-path="url(#clipPath4395-0)"
       transform="translate(17.188036,-141.26801)" />
  </g>
</svg>
